<svg width="72" height="121" viewBox="0 0 72 121" fill="none" xmlns="http://www.w3.org/2000/svg">

<g id="mark-simple">
<path id="Union" d="M34.4072 83.4979C35.0917 83.0326 35.9913 83.0326 36.6758 83.4979L68.8525 105.384C69.6187 105.905 69.9311 106.881 69.6104 107.75L65.4414 119.042C65.1132 119.93 64.2051 120.47 63.2666 120.344C40.8878 117.337 28.1389 117.438 7.71094 120.328C6.7617 120.462 5.84258 119.914 5.51758 119.013L1.45605 107.743C1.1439 106.877 1.45836 105.908 2.21972 105.391L34.4072 83.4979ZM35.2422 1.33875C35.5714 0.460795 36.8156 0.468043 37.1348 1.34949L70.9512 94.8671C71.2809 95.7796 70.2584 96.5855 69.4482 96.0516L36.8271 74.5448C36.1535 74.1008 35.279 74.1006 34.6055 74.5448L1.56836 96.3319C0.753001 96.8696 -0.274583 96.0501 0.0683571 95.1356L35.2422 1.33875Z" fill="#000000"/>
</g>
</svg>
